<svg xmlns="http://www.w3.org/2000/svg" viewBox="0 0 512 512" width="512" height="512">
  <rect width="512" height="512" fill="#00AA00" rx="64"/>
  <g fill="white">
    <!-- Shopping bag icon -->
    <path d="M128 224v-32c0-53 43-96 96-96h64c53 0 96 43 96 96v32h32c18 0 32 14 32 32v192c0 18-14 32-32 32H96c-18 0-32-14-32-32V256c0-18 14-32 32-32h32zm64-32c0-18 14-32 32-32h64c18 0 32 14 32 32v32H192v-32z"/>
    <!-- Chart/graph elements -->
    <circle cx="160" cy="320" r="8"/>
    <circle cx="200" cy="300" r="8"/>
    <circle cx="240" cy="280" r="8"/>
    <circle cx="280" cy="260" r="8"/>
    <circle cx="320" cy="240" r="8"/>
    <!-- Connect the dots -->
    <path d="M160 320L200 300L240 280L280 260L320 240" stroke="white" stroke-width="3" fill="none"/>
  </g>
  <!-- "DS" text for DukaSmart -->
  <text x="256" y="420" text-anchor="middle" fill="white" font-family="Arial, sans-serif" font-size="80" font-weight="bold">DS</text>
</svg>